<svg width="559" height="150" viewBox="0 0 559 150" fill="none" xmlns="http://www.w3.org/2000/svg">
<circle cx="26.4704" cy="31.7647" r="21.1765" fill="#5DD7AB" fill-opacity="0.69"/>
<path d="M48.9412 150C51.1503 150 52.9439 148.208 52.9152 146C52.6228 123.524 49.875 102.174 45.1881 86.1976C40.2239 69.2762 33.491 65.2941 26.4706 65.2941C19.4502 65.2941 12.7173 69.2762 7.75306 86.1976C3.06618 102.174 0.318382 123.524 0.0260032 146C-0.00273262 148.208 1.79086 150 4 150L26.4706 150H48.9412Z" fill="#5DD7AB" fill-opacity="0.69"/>
<path d="M56.4703 35.3065C57.8992 24.3516 52.445 16.2624 46.6678 11.2558C44.0055 8.94859 44.2748 4.03087 47.6522 3.02887C73.3655 -4.59953 91.587 3.8939 97.9409 9.71829C106.176 16.483 120.176 36.0124 110.294 60.0124C101.183 82.1395 71.3711 84.9663 54.327 83.4287C52.099 83.2278 50.6259 81.1178 50.377 78.8946C49.3337 69.5749 40.5879 60.6164 40.5879 60C40.5879 59.1176 53.8232 55.6006 56.4703 35.3065Z" fill="#5DD7AB"/>
<path d="M133 76H143.6V80.4C145.8 78.8 150.2 75 157.4 75C172 75 180.2 87.8 180.2 100.6C180.2 115 172.4 127 157.8 127C150.6 127 146.4 124 144 122.4V144H133V76ZM169.2 101C169.2 91 163.7 86 156.2 86C148.7 86 143.6 91 143.6 101C143.6 111 148.9 116 156.2 116C163.5 116 169.2 111.6 169.2 101ZM231.427 111.3C231.427 114.3 233.427 115.6 236.527 115.6C237.827 115.6 239.127 115.4 241.027 115V126C237.527 126.5 235.727 126.6 233.927 126.6C227.827 126.6 224.927 125.3 222.627 121.4C220.827 122.8 215.827 127 207.027 127C195.827 127 187.427 119.2 187.427 110.4C187.427 99 197.027 94.4 210.827 94.4H220.427V92C220.427 86.6 216.227 83 210.227 83C204.027 83 200.827 86.1 200.827 92H188.627C188.627 81.2 198.227 75 210.527 75C221.827 75 231.427 80.1 231.427 90.9V111.3ZM199.827 111.6C199.827 115.6 203.227 119 208.627 119C216.827 119 220.427 112 220.427 108V103C203.027 102.2 199.827 106.2 199.827 111.6ZM278.988 126V119.8C276.588 121.7 272.288 124 266.188 124C251.588 124 243.988 113 243.988 100.4C243.988 86.9 252.788 75 265.588 75C272.988 75 277.188 77.8 279.388 79.6V76H289.988V125C289.988 137.8 282.388 145 267.788 145C253.588 145 244.388 138.8 244.388 128H255.788C256.988 131.3 258.588 136 267.588 136C275.588 136 278.988 132 278.988 126ZM254.988 100.4C254.988 110 260.088 115 267.388 115C274.688 115 279.388 110 279.388 100.4C279.388 91.4 274.888 86 267.388 86C259.888 86 254.988 91.4 254.988 100.4ZM299.445 101.4C299.445 87.9 308.645 75 322.645 75C336.645 75 345.345 85 346.045 103.6H310.545C311.445 112.3 316.645 116 323.345 116C331.045 116 333.445 111.2 334.445 109H345.445C344.845 115.8 338.445 127 323.445 127C308.845 127 299.445 115 299.445 101.4ZM323.045 84C317.745 84 313.145 86.9 311.345 93.6H334.245C333.545 87.5 329.445 84 323.045 84ZM382.066 90.4C382.266 85.9 378.466 83.5 372.466 83.5C366.666 83.5 364.666 86.1 364.666 88.7C364.666 97.1 394.266 90.9 394.266 110.3C394.266 119.7 387.466 127 373.666 127C355.766 127 352.266 116 352.266 110H363.666C364.466 113.9 367.066 118 374.566 118C380.066 118 383.266 115.9 383.266 111.7C383.266 101.8 353.666 109.2 353.666 90.2C353.666 82.4 358.866 75 373.466 75C389.266 75 393.466 85.4 393.466 90.4H382.066ZM444.513 111.3C444.513 114.3 446.513 115.6 449.613 115.6C450.913 115.6 452.213 115.4 454.113 115V126C450.613 126.5 448.813 126.6 447.013 126.6C440.913 126.6 438.013 125.3 435.713 121.4C433.913 122.8 428.913 127 420.113 127C408.913 127 400.513 119.2 400.513 110.4C400.513 99 410.113 94.4 423.913 94.4H433.513V92C433.513 86.6 429.313 83 423.313 83C417.113 83 413.913 86.1 413.913 92H401.713C401.713 81.2 411.313 75 423.613 75C434.913 75 444.513 80.1 444.513 90.9V111.3ZM412.913 111.6C412.913 115.6 416.313 119 421.713 119C429.913 119 433.513 112 433.513 108V103C416.113 102.2 412.913 106.2 412.913 111.6ZM459.074 58H470.474V93.3L488.274 76H502.074L484.674 92.5L502.074 126H489.274L476.674 100L470.474 105.8V126H459.074V58ZM503.059 101.4C503.059 87.9 512.259 75 526.259 75C540.259 75 548.959 85 549.659 103.6H514.159C515.059 112.3 520.259 116 526.959 116C534.659 116 537.059 111.2 538.059 109H549.059C548.459 115.8 542.059 127 527.059 127C512.459 127 503.059 115 503.059 101.4ZM526.659 84C521.359 84 516.759 86.9 514.959 93.6H537.859C537.159 87.5 533.059 84 526.659 84Z" fill="#5DD7AB"/>
</svg>
